<?xml version="1.0" encoding="UTF-8" standalone="no"?>
<svg
   version="1.1"
   id="Layer_1"
   x="0px"
   y="0px"
   width="100%"
   viewBox="0 0 1600 1600"
   enable-background="new 0 0 1600 1600"
   xml:space="preserve"
   sodipodi:docname="bathroom.svg"
   inkscape:version="1.4 (e7c3feb100, 2024-10-09)"
   xmlns:inkscape="http://www.inkscape.org/namespaces/inkscape"
   xmlns:sodipodi="http://sodipodi.sourceforge.net/DTD/sodipodi-0.dtd"
   xmlns="http://www.w3.org/2000/svg"
   xmlns:svg="http://www.w3.org/2000/svg"><defs
   id="defs8" /><sodipodi:namedview
   id="namedview8"
   pagecolor="#ffffff"
   bordercolor="#000000"
   borderopacity="0.25"
   inkscape:showpageshadow="2"
   inkscape:pageopacity="0.0"
   inkscape:pagecheckerboard="true"
   inkscape:deskcolor="#d1d1d1"
   inkscape:zoom="0.505"
   inkscape:cx="528.71287"
   inkscape:cy="836.63366"
   inkscape:window-width="1920"
   inkscape:window-height="1080"
   inkscape:window-x="1920"
   inkscape:window-y="0"
   inkscape:window-maximized="1"
   inkscape:current-layer="Layer_1" />
<path
   fill="#000000"
   opacity="1.000000"
   stroke="none"
   d=" M1601.000000,375.000000   C1601.000000,783.999878 1601.000000,1192.499756 1601.000000,1600.999756   C1067.666992,1600.999756 534.333923,1600.999756 1.000632,1600.999878   C1.000421,1067.667114 1.000421,534.334229 1.000211,1.000989   C534.332703,1.000660 1067.665405,1.000660 1600.999023,1.000330   C1601.000000,125.500000 1601.000000,250.000000 1601.000000,375.000000  M847.500000,17.997904   C629.004272,17.997904 410.508606,17.991243 192.012909,18.040464   C187.094894,18.041573 182.104675,18.258638 177.272430,19.094006   C161.733032,21.780359 146.340027,25.003532 131.588120,30.931171   C111.022858,39.194740 92.052795,50.087940 75.660240,64.984444   C55.333733,83.455864 38.807518,104.741081 27.833248,130.288940   C18.249983,152.598587 12.152521,175.704163 12.140448,199.835876   C11.940257,599.994995 11.985929,1000.154175 12.082176,1400.313354   C12.084141,1408.480469 12.772677,1416.744629 14.140372,1424.793701   C16.808489,1440.495483 21.171215,1455.708740 27.629204,1470.410034   C37.880642,1493.746948 52.282341,1513.839111 70.725182,1531.408447   C87.874825,1547.745972 107.423958,1559.969482 129.153336,1569.034668   C150.320450,1577.865479 172.411530,1582.889160 195.259918,1582.898071   C572.919434,1583.044067 950.579041,1583.024902 1328.238647,1582.958618   C1358.656250,1582.953369 1389.078735,1582.554565 1419.487915,1581.852295   C1427.371460,1581.670288 1435.290527,1580.021362 1443.058105,1578.399658   C1463.539673,1574.123047 1482.478516,1565.888550 1500.402100,1555.194824   C1517.955811,1544.721924 1533.260376,1531.457886 1546.324829,1515.922485   C1558.263916,1501.724976 1567.875122,1485.942383 1575.201172,1468.673828   C1584.105591,1447.684448 1589.784790,1425.866699 1589.801514,1403.317871   C1590.082275,1026.325073 1590.022827,649.332092 1589.958984,272.339172   C1589.954346,244.754486 1589.704346,217.157852 1588.806641,189.591614   C1588.481934,179.624619 1586.550659,169.581070 1584.238892,159.836609   C1580.377563,143.559677 1574.152100,128.105988 1565.918457,113.460922   C1553.869995,92.030540 1537.703125,74.080612 1518.896851,58.584064   C1504.918823,47.066067 1489.014526,38.471458 1472.204346,31.636944   C1451.129639,23.068506 1429.194336,18.109758 1406.489380,18.089849   C1220.493164,17.926773 1034.496460,17.997904 847.500000,17.997904  z"
   id="path1"
   style="fill:#000000;fill-opacity:0" />
<path
   fill="#FDFEFF"
   opacity="1.000000"
   stroke="none"
   d=" M848.000000,17.997904   C1034.496460,17.997904 1220.493164,17.926773 1406.489380,18.089849   C1429.194336,18.109758 1451.129639,23.068506 1472.204346,31.636944   C1489.014526,38.471458 1504.918823,47.066067 1518.896851,58.584064   C1537.703125,74.080612 1553.869995,92.030540 1565.918457,113.460922   C1574.152100,128.105988 1580.377563,143.559677 1584.238892,159.836609   C1586.550659,169.581070 1588.481934,179.624619 1588.806641,189.591614   C1589.704346,217.157852 1589.954346,244.754486 1589.958984,272.339172   C1590.022827,649.332092 1590.082275,1026.325073 1589.801514,1403.317871   C1589.784790,1425.866699 1584.105591,1447.684448 1575.201172,1468.673828   C1567.875122,1485.942383 1558.263916,1501.724976 1546.324829,1515.922485   C1533.260376,1531.457886 1517.955811,1544.721924 1500.402100,1555.194824   C1482.478516,1565.888550 1463.539673,1574.123047 1443.058105,1578.399658   C1435.290527,1580.021362 1427.371460,1581.670288 1419.487915,1581.852295   C1389.078735,1582.554565 1358.656250,1582.953369 1328.238647,1582.958618   C950.579041,1583.024902 572.919434,1583.044067 195.259918,1582.898071   C172.411530,1582.889160 150.320450,1577.865479 129.153336,1569.034668   C107.423958,1559.969482 87.874825,1547.745972 70.725182,1531.408447   C52.282341,1513.839111 37.880642,1493.746948 27.629204,1470.410034   C21.171215,1455.708740 16.808489,1440.495483 14.140372,1424.793701   C12.772677,1416.744629 12.084141,1408.480469 12.082176,1400.313354   C11.985929,1000.154175 11.940257,599.994995 12.140448,199.835876   C12.152521,175.704163 18.249983,152.598587 27.833248,130.288940   C38.807518,104.741081 55.333733,83.455864 75.660240,64.984444   C92.052795,50.087940 111.022858,39.194740 131.588120,30.931171   C146.340027,25.003532 161.733032,21.780359 177.272430,19.094006   C182.104675,18.258638 187.094894,18.041573 192.012909,18.040464   C410.508606,17.991243 629.004272,17.997904 848.000000,17.997904  M823.499634,1550.520630   C1016.486572,1550.520508 1209.473511,1550.533325 1402.460449,1550.463623   C1408.738281,1550.461426 1415.040894,1549.838501 1421.289185,1549.128662   C1452.965942,1545.530640 1480.861084,1532.830811 1504.468018,1511.800903   C1539.021851,1481.019287 1557.114014,1442.185669 1557.119995,1395.588135   C1557.171143,998.945251 1557.164795,602.302368 1557.055176,205.659470   C1557.052612,196.245056 1556.516113,186.664734 1554.747314,177.445969   C1547.594238,140.164017 1529.290283,109.279381 1499.847168,85.174988   C1471.575195,62.029388 1438.976318,50.051174 1402.579102,50.036533   C1001.436462,49.875172 600.293823,49.911655 199.151245,50.068264   C188.950302,50.072247 178.547470,51.122089 168.585968,53.283901   C132.475922,61.120365 102.453369,79.359146 79.172325,108.202339   C57.028206,135.636963 44.927738,166.989044 44.918255,202.354202   C44.811306,601.163635 44.837276,999.973022 44.940899,1398.782471   C44.943085,1407.198608 45.510773,1415.770630 47.150906,1424.003662   C54.376171,1460.273315 71.951843,1490.600098 100.574272,1514.291138   C129.424423,1538.170776 162.605118,1550.458496 200.036880,1550.475464   C407.524414,1550.569580 615.012024,1550.520630 823.499634,1550.520630  z"
   id="path2" />
<path
   fill="#000000"
   opacity="1.000000"
   stroke="none"
   d=" M822.999634,1550.520630   C615.012024,1550.520630 407.524414,1550.569580 200.036880,1550.475464   C162.605118,1550.458496 129.424423,1538.170776 100.574272,1514.291138   C71.951843,1490.600098 54.376171,1460.273315 47.150906,1424.003662   C45.510773,1415.770630 44.943085,1407.198608 44.940899,1398.782471   C44.837276,999.973022 44.811306,601.163635 44.918255,202.354202   C44.927738,166.989044 57.028206,135.636963 79.172325,108.202339   C102.453369,79.359146 132.475922,61.120365 168.585968,53.283901   C178.547470,51.122089 188.950302,50.072247 199.151245,50.068264   C600.293823,49.911655 1001.436462,49.875172 1402.579102,50.036533   C1438.976318,50.051174 1471.575195,62.029388 1499.847168,85.174988   C1529.290283,109.279381 1547.594238,140.164017 1554.747314,177.445969   C1556.516113,186.664734 1557.052612,196.245056 1557.055176,205.659470   C1557.164795,602.302368 1557.171143,998.945251 1557.119995,1395.588135   C1557.114014,1442.185669 1539.021851,1481.019287 1504.468018,1511.800903   C1480.861084,1532.830811 1452.965942,1545.530640 1421.289185,1549.128662   C1415.040894,1549.838501 1408.738281,1550.461426 1402.460449,1550.463623   C1209.473511,1550.533325 1016.486572,1550.520508 822.999634,1550.520630  M212.048431,503.552856   C207.474411,512.587402 201.598648,521.205933 198.555298,530.729614   C186.422943,568.696228 175.220978,606.959473 163.582565,645.084839   C151.367523,685.099060 138.878250,725.030762 126.921600,765.121643   C124.651207,772.734314 123.203873,780.934143 123.291763,788.841797   C123.517807,809.180298 145.392609,825.069275 165.141647,820.301025   C180.215179,816.661682 188.636017,806.540100 192.904343,792.455078   C206.347992,748.092651 219.587799,703.668457 232.945221,659.279846   C241.199417,631.849976 249.507874,604.436401 257.872314,577.040039   C258.234283,575.854553 259.386444,574.012024 260.197784,573.997498   C271.426147,573.795959 282.659241,573.861267 294.286377,573.861267   C257.757263,704.166504 221.428940,833.755493 184.964142,963.831299   C220.256882,963.831299 255.165970,963.831299 290.528229,963.831299   C290.528229,966.205261 290.528229,968.175598 290.528229,970.145935   C290.528229,1068.136963 290.549774,1166.127930 290.500732,1264.118896   C290.494659,1276.266724 292.834412,1287.694702 302.090790,1296.144287   C312.898499,1306.010010 326.051910,1309.243164 340.265137,1305.825317   C355.300476,1302.209839 365.811859,1293.287231 368.938416,1277.493530   C369.989777,1272.182739 370.405487,1266.664429 370.410187,1261.240356   C370.494812,1163.582642 370.471771,1065.924927 370.471771,968.267212   C370.471771,966.299133 370.471771,964.331055 370.471771,962.150513   C383.806488,962.150513 396.710541,962.150513 409.999756,962.150513   C409.999756,964.138306 409.999756,965.930664 409.999756,967.723083   C409.999756,1068.213867 410.003540,1168.704590 409.994781,1269.195435   C409.993713,1281.302979 414.268433,1291.324707 424.178741,1298.634521   C438.148987,1308.938599 453.299683,1309.787231 468.469482,1302.506348   C482.951813,1295.555176 488.979004,1282.941406 488.968079,1267.027954   C488.899933,1167.870361 488.933655,1068.712891 488.933685,969.555298   C488.933685,967.770752 488.933716,965.986267 488.933716,963.857117   C524.160706,963.857117 558.930176,963.857117 594.486206,963.857117   C557.607727,833.607056 520.879639,703.888306 484.097046,573.976929   C496.770081,573.976929 509.076447,573.976929 521.640625,573.976929   C521.875122,575.121277 522.012573,576.223328 522.328491,577.271606   C536.885681,625.588074 551.453369,673.901367 566.031555,722.211487   C573.347046,746.453857 580.539551,770.734802 588.074402,794.908875   C591.795837,806.848328 599.279236,815.911499 611.468567,819.827515   C623.448181,823.676147 634.702576,821.299438 644.239807,813.062683   C655.029480,803.744385 658.797729,791.434753 656.305908,777.734375   C654.558716,768.127869 651.350952,758.764954 648.488647,749.386963   C634.799683,704.535767 621.024048,659.710938 607.242249,614.888184   C599.946838,591.161255 591.647156,567.695984 585.482727,543.680786   C578.342468,515.864502 561.449646,495.671326 539.341248,479.077087   C519.515625,464.196289 497.083282,455.417542 472.130646,455.245148   C416.638641,454.861664 361.142212,455.012848 305.648102,455.152924   C297.900208,455.172485 290.048737,455.760162 282.427795,457.113159   C252.644302,462.400696 229.877289,478.640259 212.048431,503.552856  M1336.849121,844.500061   C1336.849121,753.414917 1336.849121,662.329712 1336.849121,571.225586   C1350.203491,571.225586 1362.962280,571.225586 1376.066040,571.225586   C1376.066040,573.239868 1376.066040,575.033875 1376.066040,576.827881   C1376.066040,659.159973 1376.003052,741.492188 1376.196777,823.823853   C1376.210938,829.796631 1377.201660,836.097717 1379.285767,841.667053   C1383.790039,853.703430 1393.000732,861.154602 1405.782593,862.611450   C1417.561035,863.953918 1427.681030,859.949463 1435.349731,850.257202   C1441.552856,842.417236 1443.448486,833.459778 1443.452271,823.882751   C1443.486084,738.884033 1443.545044,653.885132 1443.362915,568.886841   C1443.343872,560.014038 1442.775391,550.925903 1440.818848,542.310852   C1431.823364,502.700653 1408.415405,475.050385 1370.451660,460.120331   C1356.053955,454.458099 1340.850830,453.572021 1325.607910,453.555389   C1264.942139,453.489105 1204.276489,453.530273 1143.610718,453.518433   C1141.616333,453.518036 1139.622070,453.310638 1137.627563,453.308411   C1119.052612,453.287598 1100.420898,451.976807 1082.038208,456.048492   C1032.501221,467.020752 996.532166,511.847168 996.529358,562.699341   C996.524658,649.698059 996.506958,736.696716 996.591919,823.695374   C996.596008,827.939209 997.175354,832.260681 998.094421,836.411377   C1001.355042,851.136292 1012.606812,860.912720 1028.575806,862.325562   C1040.497803,863.380371 1053.866089,856.701721 1060.028931,843.947266   C1063.590332,836.577148 1064.437744,828.838501 1064.442505,820.924194   C1064.490601,739.592102 1064.472046,658.259949 1064.472046,576.927856   C1064.472046,575.012451 1064.471924,573.096985 1064.471924,571.293945   C1078.113403,571.293945 1091.042969,571.293945 1104.150879,571.293945   C1104.150879,573.570618 1104.150879,575.554688 1104.150879,577.538696   C1104.150879,803.368652 1104.150879,1029.198608 1104.150879,1255.028564   C1104.150879,1256.361816 1104.074951,1257.700195 1104.162476,1259.027710   C1105.466309,1278.802368 1114.521362,1293.899780 1132.751343,1301.902100   C1165.541992,1316.296143 1200.471191,1292.868774 1200.471558,1257.065063   C1200.472656,1126.733643 1200.472046,996.402283 1200.472046,866.070923   C1200.472046,864.111511 1200.471924,862.152161 1200.471924,860.196838   C1213.929443,860.196838 1226.855225,860.196838 1240.066040,860.196838   C1240.066040,862.426636 1240.066040,864.396790 1240.066040,866.366882   C1240.066040,996.698242 1240.094849,1127.029541 1240.041382,1257.360962   C1240.030884,1282.900757 1258.866943,1302.749268 1282.115845,1305.818726   C1311.126221,1309.648804 1336.396606,1287.269897 1336.455688,1257.968384   C1336.627197,1172.811523 1336.750610,1087.654663 1336.838989,1002.497742   C1336.893433,950.165283 1336.849121,897.832642 1336.849121,844.500061  M774.066284,894.500000   C774.066284,1030.253296 774.066284,1166.006714 774.066284,1301.678223   C798.058472,1301.678223 821.456299,1301.678223 844.692444,1301.678223   C844.692444,957.793762 844.692444,614.231201 844.692444,270.528290   C823.055664,270.528290 801.726379,270.510559 780.397095,270.538391   C773.442749,270.547455 774.063354,269.809509 774.063477,277.039490   C774.066956,482.526337 774.066284,688.013184 774.066284,894.500000  M341.172607,282.598328   C335.735291,287.621338 329.749420,292.173218 324.958710,297.751526   C307.250031,318.371582 300.987244,342.156372 305.931183,369.036621   C313.037506,407.673401 347.509918,436.695740 386.663544,437.820282   C416.292267,438.671326 440.772247,427.187103 458.690521,403.492584   C473.368042,384.083588 478.679871,362.021240 474.269653,337.781128   C470.618561,317.713440 460.951080,301.269257 445.520538,288.071106   C429.159607,274.077209 410.051941,267.475983 388.713440,267.612305   C371.698578,267.720978 356.058105,272.928162 341.172607,282.598328  M1268.981934,281.541748   C1251.717163,269.917053 1232.906860,264.909180 1211.986694,266.869324   C1191.542358,268.784851 1174.168945,276.981598 1159.782715,291.149567   C1144.844238,305.861420 1136.397949,323.862305 1134.913696,345.061951   C1133.328979,367.695251 1139.418945,387.970123 1153.979614,405.149933   C1172.857300,427.423645 1197.169556,437.935364 1226.597168,436.021301   C1246.407715,434.732697 1263.757812,427.429565 1278.201172,414.034180   C1300.194946,393.636047 1309.317993,368.307922 1304.965820,338.476135   C1301.469116,314.508301 1289.193604,295.911682 1268.981934,281.541748  z"
   id="path3" />
<path
   fill="#FEFFFF"
   opacity="1.000000"
   stroke="none"
   d=" M212.300476,503.290710   C229.877289,478.640259 252.644302,462.400696 282.427795,457.113159   C290.048737,455.760162 297.900208,455.172485 305.648102,455.152924   C361.142212,455.012848 416.638641,454.861664 472.130646,455.245148   C497.083282,455.417542 519.515625,464.196289 539.341248,479.077087   C561.449646,495.671326 578.342468,515.864502 585.482727,543.680786   C591.647156,567.695984 599.946838,591.161255 607.242249,614.888184   C621.024048,659.710938 634.799683,704.535767 648.488647,749.386963   C651.350952,758.764954 654.558716,768.127869 656.305908,777.734375   C658.797729,791.434753 655.029480,803.744385 644.239807,813.062683   C634.702576,821.299438 623.448181,823.676147 611.468567,819.827515   C599.279236,815.911499 591.795837,806.848328 588.074402,794.908875   C580.539551,770.734802 573.347046,746.453857 566.031555,722.211487   C551.453369,673.901367 536.885681,625.588074 522.328491,577.271606   C522.012573,576.223328 521.875122,575.121277 521.640625,573.976929   C509.076447,573.976929 496.770081,573.976929 484.097046,573.976929   C520.879639,703.888306 557.607727,833.607056 594.486206,963.857117   C558.930176,963.857117 524.160706,963.857117 488.933716,963.857117   C488.933716,965.986267 488.933685,967.770752 488.933685,969.555298   C488.933655,1068.712891 488.899933,1167.870361 488.968079,1267.027954   C488.979004,1282.941406 482.951813,1295.555176 468.469482,1302.506348   C453.299683,1309.787231 438.148987,1308.938599 424.178741,1298.634521   C414.268433,1291.324707 409.993713,1281.302979 409.994781,1269.195435   C410.003540,1168.704590 409.999756,1068.213867 409.999756,967.723083   C409.999756,965.930664 409.999756,964.138306 409.999756,962.150513   C396.710541,962.150513 383.806488,962.150513 370.471771,962.150513   C370.471771,964.331055 370.471771,966.299133 370.471771,968.267212   C370.471771,1065.924927 370.494812,1163.582642 370.410187,1261.240356   C370.405487,1266.664429 369.989777,1272.182739 368.938416,1277.493530   C365.811859,1293.287231 355.300476,1302.209839 340.265137,1305.825317   C326.051910,1309.243164 312.898499,1306.010010 302.090790,1296.144287   C292.834412,1287.694702 290.494659,1276.266724 290.500732,1264.118896   C290.549774,1166.127930 290.528229,1068.136963 290.528229,970.145935   C290.528229,968.175598 290.528229,966.205261 290.528229,963.831299   C255.165970,963.831299 220.256882,963.831299 184.964142,963.831299   C221.428940,833.755493 257.757263,704.166504 294.286377,573.861267   C282.659241,573.861267 271.426147,573.795959 260.197784,573.997498   C259.386444,574.012024 258.234283,575.854553 257.872314,577.040039   C249.507874,604.436401 241.199417,631.849976 232.945221,659.279846   C219.587799,703.668457 206.347992,748.092651 192.904343,792.455078   C188.636017,806.540100 180.215179,816.661682 165.141647,820.301025   C145.392609,825.069275 123.517807,809.180298 123.291763,788.841797   C123.203873,780.934143 124.651207,772.734314 126.921600,765.121643   C138.878250,725.030762 151.367523,685.099060 163.582565,645.084839   C175.220978,606.959473 186.422943,568.696228 198.555298,530.729614   C201.598648,521.205933 207.474411,512.587402 212.300476,503.290710  z"
   id="path4" />
<path
   fill="#FEFEFF"
   opacity="1.000000"
   stroke="none"
   d=" M1336.849121,845.000122   C1336.849121,897.832642 1336.893433,950.165283 1336.838989,1002.497742   C1336.750610,1087.654663 1336.627197,1172.811523 1336.455688,1257.968384   C1336.396606,1287.269897 1311.126221,1309.648804 1282.115845,1305.818726   C1258.866943,1302.749268 1240.030884,1282.900757 1240.041382,1257.360962   C1240.094849,1127.029541 1240.066040,996.698242 1240.066040,866.366882   C1240.066040,864.396790 1240.066040,862.426636 1240.066040,860.196838   C1226.855225,860.196838 1213.929443,860.196838 1200.471924,860.196838   C1200.471924,862.152161 1200.472046,864.111511 1200.472046,866.070923   C1200.472046,996.402283 1200.472656,1126.733643 1200.471558,1257.065063   C1200.471191,1292.868774 1165.541992,1316.296143 1132.751343,1301.902100   C1114.521362,1293.899780 1105.466309,1278.802368 1104.162476,1259.027710   C1104.074951,1257.700195 1104.150879,1256.361816 1104.150879,1255.028564   C1104.150879,1029.198608 1104.150879,803.368652 1104.150879,577.538696   C1104.150879,575.554688 1104.150879,573.570618 1104.150879,571.293945   C1091.042969,571.293945 1078.113403,571.293945 1064.471924,571.293945   C1064.471924,573.096985 1064.472046,575.012451 1064.472046,576.927856   C1064.472046,658.259949 1064.490601,739.592102 1064.442505,820.924194   C1064.437744,828.838501 1063.590332,836.577148 1060.028931,843.947266   C1053.866089,856.701721 1040.497803,863.380371 1028.575806,862.325562   C1012.606812,860.912720 1001.355042,851.136292 998.094421,836.411377   C997.175354,832.260681 996.596008,827.939209 996.591919,823.695374   C996.506958,736.696716 996.524658,649.698059 996.529358,562.699341   C996.532166,511.847168 1032.501221,467.020752 1082.038208,456.048492   C1100.420898,451.976807 1119.052612,453.287598 1137.627563,453.308411   C1139.622070,453.310638 1141.616333,453.518036 1143.610718,453.518433   C1204.276489,453.530273 1264.942139,453.489105 1325.607910,453.555389   C1340.850830,453.572021 1356.053955,454.458099 1370.451660,460.120331   C1408.415405,475.050385 1431.823364,502.700653 1440.818848,542.310852   C1442.775391,550.925903 1443.343872,560.014038 1443.362915,568.886841   C1443.545044,653.885132 1443.486084,738.884033 1443.452271,823.882751   C1443.448486,833.459778 1441.552856,842.417236 1435.349731,850.257202   C1427.681030,859.949463 1417.561035,863.953918 1405.782593,862.611450   C1393.000732,861.154602 1383.790039,853.703430 1379.285767,841.667053   C1377.201660,836.097717 1376.210938,829.796631 1376.196777,823.823853   C1376.003052,741.492188 1376.066040,659.159973 1376.066040,576.827881   C1376.066040,575.033875 1376.066040,573.239868 1376.066040,571.225586   C1362.962280,571.225586 1350.203491,571.225586 1336.849121,571.225586   C1336.849121,662.329712 1336.849121,753.414917 1336.849121,845.000122  z"
   id="path5" />
<path
   fill="#FEFFFF"
   opacity="1.000000"
   stroke="none"
   d=" M774.066284,894.000000   C774.066284,688.013184 774.066956,482.526337 774.063477,277.039490   C774.063354,269.809509 773.442749,270.547455 780.397095,270.538391   C801.726379,270.510559 823.055664,270.528290 844.692444,270.528290   C844.692444,614.231201 844.692444,957.793762 844.692444,1301.678223   C821.456299,1301.678223 798.058472,1301.678223 774.066284,1301.678223   C774.066284,1166.006714 774.066284,1030.253296 774.066284,894.000000  z"
   id="path6" />
<path
   fill="#FEFEFF"
   opacity="1.000000"
   stroke="none"
   d=" M341.474976,282.390625   C356.058105,272.928162 371.698578,267.720978 388.713440,267.612305   C410.051941,267.475983 429.159607,274.077209 445.520538,288.071106   C460.951080,301.269257 470.618561,317.713440 474.269653,337.781128   C478.679871,362.021240 473.368042,384.083588 458.690521,403.492584   C440.772247,427.187103 416.292267,438.671326 386.663544,437.820282   C347.509918,436.695740 313.037506,407.673401 305.931183,369.036621   C300.987244,342.156372 307.250031,318.371582 324.958710,297.751526   C329.749420,292.173218 335.735291,287.621338 341.474976,282.390625  z"
   id="path7" />
<path
   fill="#FEFEFF"
   opacity="1.000000"
   stroke="none"
   d=" M1269.270752,281.767456   C1289.193604,295.911682 1301.469116,314.508301 1304.965820,338.476135   C1309.317993,368.307922 1300.194946,393.636047 1278.201172,414.034180   C1263.757812,427.429565 1246.407715,434.732697 1226.597168,436.021301   C1197.169556,437.935364 1172.857300,427.423645 1153.979614,405.149933   C1139.418945,387.970123 1133.328979,367.695251 1134.913696,345.061951   C1136.397949,323.862305 1144.844238,305.861420 1159.782715,291.149567   C1174.168945,276.981598 1191.542358,268.784851 1211.986694,266.869324   C1232.906860,264.909180 1251.717163,269.917053 1269.270752,281.767456  z"
   id="path8" />
</svg>
