<?xml version="1.0" encoding="UTF-8" standalone="no"?>
<svg
   version="1.1"
   id="Layer_1"
   x="0px"
   y="0px"
   width="100%"
   viewBox="0 0 600 600"
   enable-background="new 0 0 600 600"
   xml:space="preserve"
   sodipodi:docname="cafeteria.svg"
   inkscape:version="1.4 (e7c3feb100, 2024-10-09)"
   xmlns:inkscape="http://www.inkscape.org/namespaces/inkscape"
   xmlns:sodipodi="http://sodipodi.sourceforge.net/DTD/sodipodi-0.dtd"
   xmlns="http://www.w3.org/2000/svg"
   xmlns:svg="http://www.w3.org/2000/svg"><defs
   id="defs6" /><sodipodi:namedview
   id="namedview6"
   pagecolor="#ffffff"
   bordercolor="#000000"
   borderopacity="0.25"
   inkscape:showpageshadow="2"
   inkscape:pageopacity="0.0"
   inkscape:pagecheckerboard="true"
   inkscape:deskcolor="#d1d1d1"
   inkscape:zoom="1"
   inkscape:cx="493.5"
   inkscape:cy="342.5"
   inkscape:window-width="1920"
   inkscape:window-height="1080"
   inkscape:window-x="1920"
   inkscape:window-y="0"
   inkscape:window-maximized="1"
   inkscape:current-layer="Layer_1" />


<path
   fill="#07080B"
   opacity="1.000000"
   stroke="none"
   d=" M103.000107,19.323420   C248.990707,19.328712 394.481323,19.348621 539.971924,19.307327   C550.858948,19.304237 561.333618,20.398041 570.253906,27.476933   C578.294312,33.857513 582.470398,42.186897 582.481628,52.444210   C582.560120,123.938988 582.616150,195.433807 582.629211,266.928619   C582.646179,359.922516 582.561707,452.916443 582.673279,545.910217   C582.688049,558.196350 579.036011,568.321655 568.742371,575.596436   C561.497803,580.716309 553.350159,582.600769 544.652039,582.601501   C449.157257,582.609192 353.662506,582.608521 258.167725,582.603699   C191.004807,582.600281 123.841789,582.649658 56.679081,582.527344   C42.490459,582.501526 30.206127,577.645020 23.517706,564.393127   C20.737957,558.885437 19.453384,552.058533 19.416237,545.820129   C19.101662,492.991608 19.230677,440.160461 19.229948,387.330109   C19.228493,281.669434 19.205738,176.008743 19.275225,70.348114   C19.280571,62.216503 19.100437,53.939049 20.482485,45.985870   C22.985941,31.579418 32.847385,23.251471 46.685116,20.918003   C56.924908,19.191259 67.546638,19.611383 78.005089,19.337236   C86.164612,19.123352 94.334709,19.312668 103.000107,19.323420  M570.982300,98.500000   C570.981995,83.336060 570.983337,68.172119 570.980835,53.008183   C570.978699,40.302399 561.810425,31.039936 548.958801,31.037910   C383.655731,31.011866 218.352676,31.011759 53.049610,31.035116   C40.259048,31.036924 31.021065,40.375935 31.020901,53.067234   C31.018759,218.370300 31.019194,383.673370 31.022045,548.976440   C31.022264,561.713806 40.191418,570.961182 53.115181,570.963440   C218.418228,570.992310 383.721283,570.991577 549.024353,570.964478   C561.810242,570.962341 570.981873,561.631287 570.981934,548.917664   C570.982727,399.111786 570.982361,249.305893 570.982300,98.500000  z"
   id="path3" />
<path
   fill="#FEFEFE"
   opacity="1.000000"
   stroke="none"
   d=" M570.982300,99.000000   C570.982361,249.305893 570.982727,399.111786 570.981934,548.917664   C570.981873,561.631287 561.810242,570.962341 549.024353,570.964478   C383.721283,570.991577 218.418228,570.992310 53.115181,570.963440   C40.191418,570.961182 31.022264,561.713806 31.022045,548.976440   C31.019194,383.673370 31.018759,218.370300 31.020901,53.067234   C31.021065,40.375935 40.259048,31.036924 53.049610,31.035116   C218.352676,31.011759 383.655731,31.011866 548.958801,31.037910   C561.810425,31.039936 570.978699,40.302399 570.980835,53.008183   C570.983337,68.172119 570.981995,83.336060 570.982300,99.000000  M404.385956,335.500244   C404.388733,270.854034 404.301910,206.207611 404.472534,141.561844   C404.505249,129.172485 399.922119,118.898216 392.008148,109.920753   C384.418976,101.311729 369.922211,97.081863 361.452850,100.522491   C343.870514,107.665230 335.243317,122.007828 334.796814,139.703522   C333.767517,180.497910 334.331818,221.334579 334.425568,262.153717   C334.447968,271.914917 335.540955,281.553741 339.795654,290.632629   C343.490143,298.516235 348.745728,304.999451 357.360077,306.787689   C362.607544,307.877014 363.643494,309.912750 363.634583,314.686432   C363.536072,367.336273 363.617859,419.986481 363.663727,472.636566   C363.667938,477.466675 363.460907,482.323608 363.889832,487.119965   C364.421570,493.066315 367.681458,498.632935 373.252594,499.488007   C381.302521,500.723633 389.817322,500.405609 397.928192,499.275146   C403.801666,498.456482 404.344940,492.587219 404.346832,487.452850   C404.365417,437.135315 404.373871,386.817810 404.385956,335.500244  M265.262970,459.500153   C265.262970,387.214539 265.262970,314.928925 265.262970,242.733765   C266.670654,242.266129 267.741791,241.828400 268.853210,241.553650   C280.965027,238.559586 286.007294,232.061050 286.004730,219.469955   C285.997131,182.311111 286.002197,145.152252 286.002289,107.993401   C286.002289,106.246132 286.002289,104.498856 286.002289,102.708786   C279.670563,102.708786 274.039337,102.708786 267.931946,102.708786   C267.931946,104.472931 267.931854,106.099297 267.931946,107.725662   C267.933228,127.221565 267.988556,146.717850 267.850922,166.212769   C267.837372,168.131500 267.130310,171.201813 265.894623,171.723679   C262.987854,172.951324 259.357758,173.885437 256.407776,173.220215   C252.982880,172.447922 251.155609,169.242844 251.174133,165.253326   C251.262268,146.257828 251.215469,127.261696 251.216660,108.265785   C251.216766,106.500519 251.216660,104.735252 251.216660,102.917801   C245.018738,102.917801 239.457321,102.917801 233.624634,102.917801   C233.624634,123.727966 233.649734,144.198853 233.607727,164.669617   C233.596619,170.078934 229.280273,174.615952 224.397064,174.587708   C219.602844,174.559982 216.289978,170.721924 216.279861,165.008255   C216.245071,145.346069 216.257736,125.683792 216.235062,106.021584   C216.233597,104.750267 216.086411,103.479118 215.996048,102.032455   C209.763428,102.032455 203.871689,102.032455 197.598007,102.032455   C197.598007,103.772217 197.597351,105.242920 197.598068,106.713615   C197.616089,143.872223 197.694122,181.030991 197.597397,218.189316   C197.579956,224.891724 199.579727,230.774109 204.525543,234.976074   C209.258682,238.997375 214.840851,242.019333 220.541977,245.807510   C220.541977,246.531845 220.541977,248.196442 220.541977,249.861053   C220.542542,327.178131 220.505203,404.495270 220.643677,481.812103   C220.651474,486.161469 221.638260,490.662689 223.009232,494.815979   C224.621384,499.699951 228.183228,502.536926 233.839706,502.292419   C239.661011,502.040741 245.501572,502.247009 251.333618,502.229004   C260.632080,502.200287 265.083008,497.905304 265.223938,488.493744   C265.363647,479.164459 265.259918,469.831512 265.262970,459.500153  z"
   id="path4" />
<path
   fill="#010101"
   opacity="1.000000"
   stroke="none"
   d=" M404.385590,336.000244   C404.373871,386.817810 404.365417,437.135315 404.346832,487.452850   C404.344940,492.587219 403.801666,498.456482 397.928192,499.275146   C389.817322,500.405609 381.302521,500.723633 373.252594,499.488007   C367.681458,498.632935 364.421570,493.066315 363.889832,487.119965   C363.460907,482.323608 363.667938,477.466675 363.663727,472.636566   C363.617859,419.986481 363.536072,367.336273 363.634583,314.686432   C363.643494,309.912750 362.607544,307.877014 357.360077,306.787689   C348.745728,304.999451 343.490143,298.516235 339.795654,290.632629   C335.540955,281.553741 334.447968,271.914917 334.425568,262.153717   C334.331818,221.334579 333.767517,180.497910 334.796814,139.703522   C335.243317,122.007828 343.870514,107.665230 361.452850,100.522491   C369.922211,97.081863 384.418976,101.311729 392.008148,109.920753   C399.922119,118.898216 404.505249,129.172485 404.472534,141.561844   C404.301910,206.207611 404.388733,270.854034 404.385590,336.000244  z"
   id="path5" />
<path
   fill="#000001"
   opacity="1.000000"
   stroke="none"
   d=" M265.262970,460.000183   C265.259918,469.831512 265.363647,479.164459 265.223938,488.493744   C265.083008,497.905304 260.632080,502.200287 251.333618,502.229004   C245.501572,502.247009 239.661011,502.040741 233.839706,502.292419   C228.183228,502.536926 224.621384,499.699951 223.009232,494.815979   C221.638260,490.662689 220.651474,486.161469 220.643677,481.812103   C220.505203,404.495270 220.542542,327.178131 220.541977,249.861053   C220.541977,248.196442 220.541977,246.531845 220.541977,245.807510   C214.840851,242.019333 209.258682,238.997375 204.525543,234.976074   C199.579727,230.774109 197.579956,224.891724 197.597397,218.189316   C197.694122,181.030991 197.616089,143.872223 197.598068,106.713615   C197.597351,105.242920 197.598007,103.772217 197.598007,102.032455   C203.871689,102.032455 209.763428,102.032455 215.996048,102.032455   C216.086411,103.479118 216.233597,104.750267 216.235062,106.021584   C216.257736,125.683792 216.245071,145.346069 216.279861,165.008255   C216.289978,170.721924 219.602844,174.559982 224.397064,174.587708   C229.280273,174.615952 233.596619,170.078934 233.607727,164.669617   C233.649734,144.198853 233.624634,123.727966 233.624634,102.917801   C239.457321,102.917801 245.018738,102.917801 251.216660,102.917801   C251.216660,104.735252 251.216766,106.500519 251.216660,108.265785   C251.215469,127.261696 251.262268,146.257828 251.174133,165.253326   C251.155609,169.242844 252.982880,172.447922 256.407776,173.220215   C259.357758,173.885437 262.987854,172.951324 265.894623,171.723679   C267.130310,171.201813 267.837372,168.131500 267.850922,166.212769   C267.988556,146.717850 267.933228,127.221565 267.931946,107.725662   C267.931854,106.099297 267.931946,104.472931 267.931946,102.708786   C274.039337,102.708786 279.670563,102.708786 286.002289,102.708786   C286.002289,104.498856 286.002289,106.246132 286.002289,107.993401   C286.002197,145.152252 285.997131,182.311111 286.004730,219.469955   C286.007294,232.061050 280.965027,238.559586 268.853210,241.553650   C267.741791,241.828400 266.670654,242.266129 265.262970,242.733765   C265.262970,314.928925 265.262970,387.214539 265.262970,460.000183  z"
   id="path6" />
</svg>
