<?xml version="1.0" encoding="UTF-8" standalone="no"?>
<svg
   version="1.1"
   id="Layer_1"
   x="0px"
   y="0px"
   width="100%"
   viewBox="0 0 500 500"
   enable-background="new 0 0 500 500"
   xml:space="preserve"
   sodipodi:docname="estacionamiento.svg"
   inkscape:version="1.4 (e7c3feb100, 2024-10-09)"
   xmlns:inkscape="http://www.inkscape.org/namespaces/inkscape"
   xmlns:sodipodi="http://sodipodi.sourceforge.net/DTD/sodipodi-0.dtd"
   xmlns="http://www.w3.org/2000/svg"
   xmlns:svg="http://www.w3.org/2000/svg"><defs
   id="defs4" /><sodipodi:namedview
   id="namedview4"
   pagecolor="#ffffff"
   bordercolor="#000000"
   borderopacity="0.25"
   inkscape:showpageshadow="2"
   inkscape:pageopacity="0.0"
   inkscape:pagecheckerboard="true"
   inkscape:deskcolor="#d1d1d1"
   inkscape:zoom="1.1426846"
   inkscape:cx="387.68355"
   inkscape:cy="311.98461"
   inkscape:window-width="1920"
   inkscape:window-height="1080"
   inkscape:window-x="1920"
   inkscape:window-y="0"
   inkscape:window-maximized="1"
   inkscape:current-layer="Layer_1" />
<path
   fill="#EC3339"
   opacity="1.000000"
   stroke="none"
   d=" M249.000000,501.000000   C248.250000,501.000000 247.500000,501.000000 246.586411,500.587494   C245.921463,499.787018 245.450668,499.110565 244.914215,499.053772   C234.773560,497.979462 224.521072,497.572693 214.503525,495.818329   C200.587372,493.381195 186.543060,490.903717 173.117386,486.659973   C160.290268,482.605347 147.718002,477.126831 135.887939,470.701447   C122.901909,463.648193 110.622330,455.179016 98.529549,446.627350   C85.185242,437.190643 73.490318,425.700989 63.188259,413.082184   C54.451649,402.380829 46.428768,391.002411 39.046196,379.319366   C32.946148,369.666016 27.335117,359.488312 23.150352,348.893982   C17.819769,335.398834 14.324821,321.189423 9.703757,307.400116   C5.173032,293.880341 4.502202,279.757996 3.233492,265.818573   C1.455474,246.283310 3.517217,226.692001 6.340277,207.392517   C8.086766,195.452881 12.164851,183.757889 16.096184,172.260803   C20.199476,160.260849 24.740194,148.316208 30.300072,136.938873   C34.625820,128.086945 40.349991,119.799637 46.272545,111.874077   C55.652325,99.322083 65.292557,86.906754 75.660118,75.173668   C81.417862,68.657562 88.520950,63.148724 95.640884,58.057426   C108.514114,48.852085 121.304214,39.288849 135.151382,31.753855   C149.531860,23.928654 164.842438,17.851616 180.838211,13.362393   C195.235931,9.321670 209.853378,7.331211 224.457901,4.732786   C242.458267,1.530179 260.270477,3.582238 278.097290,5.191693   C287.419037,6.033286 296.741943,7.843602 305.819122,10.172238   C318.133026,13.331223 330.525146,16.619074 342.305328,21.305542   C354.615082,26.202688 366.388855,32.542747 378.108612,38.792736   C385.576141,42.775082 392.875275,47.273251 399.600220,52.393467   C406.750488,57.837498 413.204071,64.212669 419.830750,70.323448   C425.643951,75.684074 431.861023,80.759758 436.851624,86.823875   C444.527466,96.150925 451.973328,105.805634 458.294067,116.073975   C465.908600,128.444183 472.622742,141.415985 479.026550,154.470779   C485.419739,167.503998 489.790283,181.343582 492.231445,195.699432   C494.584808,209.539200 498.107239,223.369095 498.583588,237.290009   C499.145599,253.714188 496.785553,270.222626 496.070984,286.710968   C495.455780,300.907288 491.248901,314.308319 486.896240,327.535858   C482.571198,340.679382 477.307007,353.635864 471.121338,366.007751   C465.880127,376.490601 459.148438,386.314880 452.340637,395.908569   C440.749542,412.242981 427.120667,426.771698 411.800537,439.760345   C395.179535,453.851868 377.509521,466.285461 357.419952,474.861694   C345.907990,479.776154 334.163055,484.233337 322.280640,488.163635   C312.748444,491.316498 302.981201,494.293488 293.084503,495.679382   C279.553864,497.574158 265.798065,497.843292 252.151016,498.958588   C251.052399,499.048401 250.048126,500.292358 249.000000,501.000000  M347.358551,423.862762   C375.298065,408.521027 397.974365,387.338104 415.651062,360.976135   C432.054077,336.513580 442.348724,309.588348 446.813934,280.338623   C450.172729,258.336548 449.769592,236.459198 445.751526,214.739685   C441.863251,193.721436 434.554352,173.805405 424.125885,155.008759   C408.729279,127.257309 387.868011,104.468201 361.716370,86.801315   C337.212830,70.247787 310.162842,59.841396 280.721710,55.310005   C244.008270,49.659298 208.686340,54.311501 174.585999,68.260201   C144.464722,80.581268 118.941895,99.733589 98.341118,124.798058   C75.242462,152.901642 60.744785,185.125381 55.262058,221.338669   C49.200848,261.372772 55.097961,299.621704 72.163788,336.072906   C85.280060,364.088196 104.430580,387.606689 128.725967,406.780090   C149.290314,423.009003 172.271652,434.829346 197.513748,441.727478   C223.934509,448.947784 250.785339,451.122894 278.122070,447.114136   C302.421478,443.550781 325.281128,436.146606 347.358551,423.862762  z"
   id="path1" />
<path
   fill="#000000"
   opacity="1.000000"
   stroke="none"
   d=" M249.468658,501.000000   C250.048126,500.292358 251.052399,499.048401 252.151016,498.958588   C265.798065,497.843292 279.553864,497.574158 293.084503,495.679382   C302.981201,494.293488 312.748444,491.316498 322.280640,488.163635   C334.163055,484.233337 345.907990,479.776154 357.419952,474.861694   C377.509521,466.285461 395.179535,453.851868 411.800537,439.760345   C427.120667,426.771698 440.749542,412.242981 452.340637,395.908569   C459.148438,386.314880 465.880127,376.490601 471.121338,366.007751   C477.307007,353.635864 482.571198,340.679382 486.896240,327.535858   C491.248901,314.308319 495.455780,300.907288 496.070984,286.710968   C496.785553,270.222626 499.145599,253.714188 498.583588,237.290009   C498.107239,223.369095 494.584808,209.539200 492.231445,195.699432   C489.790283,181.343582 485.419739,167.503998 479.026550,154.470779   C472.622742,141.415985 465.908600,128.444183 458.294067,116.073975   C451.973328,105.805634 444.527466,96.150925 436.851624,86.823875   C431.861023,80.759758 425.643951,75.684074 419.830750,70.323448   C413.204071,64.212669 406.750488,57.837498 399.600220,52.393467   C392.875275,47.273251 385.576141,42.775082 378.108612,38.792736   C366.388855,32.542747 354.615082,26.202688 342.305328,21.305542   C330.525146,16.619074 318.133026,13.331223 305.819122,10.172238   C296.741943,7.843602 287.419037,6.033286 278.097290,5.191693   C260.270477,3.582238 242.458267,1.530179 224.457901,4.732786   C209.853378,7.331211 195.235931,9.321670 180.838211,13.362393   C164.842438,17.851616 149.531860,23.928654 135.151382,31.753855   C121.304214,39.288849 108.514114,48.852085 95.640884,58.057426   C88.520950,63.148724 81.417862,68.657562 75.660118,75.173668   C65.292557,86.906754 55.652325,99.322083 46.272545,111.874077   C40.349991,119.799637 34.625820,128.086945 30.300072,136.938873   C24.740194,148.316208 20.199476,160.260849 16.096184,172.260803   C12.164851,183.757889 8.086766,195.452881 6.340277,207.392517   C3.517217,226.692001 1.455474,246.283310 3.233492,265.818573   C4.502202,279.757996 5.173032,293.880341 9.703757,307.400116   C14.324821,321.189423 17.819769,335.398834 23.150352,348.893982   C27.335117,359.488312 32.946148,369.666016 39.046196,379.319366   C46.428768,391.002411 54.451649,402.380829 63.188259,413.082184   C73.490318,425.700989 85.185242,437.190643 98.529549,446.627350   C110.622330,455.179016 122.901909,463.648193 135.887939,470.701447   C147.718002,477.126831 160.290268,482.605347 173.117386,486.659973   C186.543060,490.903717 200.587372,493.381195 214.503525,495.818329   C224.521072,497.572693 234.773560,497.979462 244.914215,499.053772   C245.450668,499.110565 245.921463,499.787018 246.211411,500.587494   C164.351196,501.000000 82.702393,501.000000 1.026797,501.000000   C1.026797,334.387665 1.026797,167.775314 1.026797,1.081484   C167.575851,1.081484 334.151764,1.081484 500.863831,1.081484   C500.863831,167.666595 500.863831,334.333282 500.863831,501.000000   C417.233673,501.000000 333.585480,501.000000 249.468658,501.000000  z"
   id="path2"
   style="fill:#000000;fill-opacity:0" />
<path
   fill="#FEFDFD"
   opacity="1.000000"
   stroke="none"
   d=" M347.032471,424.036499   C325.281128,436.146606 302.421478,443.550781 278.122070,447.114136   C250.785339,451.122894 223.934509,448.947784 197.513748,441.727478   C172.271652,434.829346 149.290314,423.009003 128.725967,406.780090   C104.430580,387.606689 85.280060,364.088196 72.163788,336.072906   C55.097961,299.621704 49.200848,261.372772 55.262058,221.338669   C60.744785,185.125381 75.242462,152.901642 98.341118,124.798058   C118.941895,99.733589 144.464722,80.581268 174.585999,68.260201   C208.686340,54.311501 244.008270,49.659298 280.721710,55.310005   C310.162842,59.841396 337.212830,70.247787 361.716370,86.801315   C387.868011,104.468201 408.729279,127.257309 424.125885,155.008759   C434.554352,173.805405 441.863251,193.721436 445.751526,214.739685   C449.769592,236.459198 450.172729,258.336548 446.813934,280.338623   C442.348724,309.588348 432.054077,336.513580 415.651062,360.976135   C397.974365,387.338104 375.298065,408.521027 347.032471,424.036499  M142.935822,286.500000   C142.935822,321.909943 142.935822,357.319855 142.935822,392.635559   C215.366425,392.635559 287.090118,392.635559 358.685730,392.635559   C358.685730,376.422333 358.685730,360.534454 358.685730,344.246948   C305.728882,344.246948 253.136475,344.246948 200.394073,344.246948   C200.394073,318.632324 200.394073,293.425507 200.394073,267.733002   C248.139114,267.733002 295.541687,267.733002 342.806702,267.733002   C342.806702,251.642365 342.806702,236.040710 342.806702,219.890976   C295.148804,219.890976 247.781448,219.890976 200.374832,219.890976   C200.374832,198.772705 200.374832,178.208282 200.374832,157.220551   C251.458389,157.220551 302.220276,157.220551 353.200989,157.220551   C353.200989,141.070679 353.200989,125.349106 353.200989,109.672333   C282.927704,109.672333 213.045319,109.672333 142.936539,109.672333   C142.936539,168.532257 142.936539,227.016129 142.935822,286.500000  z"
   id="path3" />
<path
   fill="#211F20"
   opacity="1.000000"
   stroke="none"
   d=" M142.936188,286.000000   C142.936539,227.016129 142.936539,168.532257 142.936539,109.672333   C213.045319,109.672333 282.927704,109.672333 353.200989,109.672333   C353.200989,125.349106 353.200989,141.070679 353.200989,157.220551   C302.220276,157.220551 251.458389,157.220551 200.374832,157.220551   C200.374832,178.208282 200.374832,198.772705 200.374832,219.890976   C247.781448,219.890976 295.148804,219.890976 342.806702,219.890976   C342.806702,236.040710 342.806702,251.642365 342.806702,267.733002   C295.541687,267.733002 248.139114,267.733002 200.394073,267.733002   C200.394073,293.425507 200.394073,318.632324 200.394073,344.246948   C253.136475,344.246948 305.728882,344.246948 358.685730,344.246948   C358.685730,360.534454 358.685730,376.422333 358.685730,392.635559   C287.090118,392.635559 215.366425,392.635559 142.935822,392.635559   C142.935822,357.319855 142.935822,321.909943 142.936188,286.000000  z"
   id="path4" />
</svg>
