<?xml version="1.0" encoding="UTF-8" standalone="no"?>
<!-- Created with Inkscape (http://www.inkscape.org/) -->

<svg
   version="1.1"
   id="svg1"
   width="50.872437"
   height="98.55304"
   viewBox="0 0 50.872437 98.55304"
   xml:space="preserve"
   xmlns="http://www.w3.org/2000/svg"
   xmlns:svg="http://www.w3.org/2000/svg"><defs
     id="defs1"><linearGradient
       id="swatch413"><stop
         style="stop-color:#22366c;stop-opacity:1;"
         offset="0"
         id="stop413" /></linearGradient></defs><g
     id="g1"
     style="display:inline"
     transform="translate(-1251.5742,-788.91016)"><path
       style="fill:#f1963e;fill-opacity:1"
       d="m 1274,831.75 c 0.3256,1.38844 0.4106,2.83296 0.25,4.25 -0.09,0.79167 -0.2555,1.57829 -0.25,2.375 0,0.62642 0.1143,1.25909 0,1.875 -0.027,0.14706 -0.067,0.29219 -0.08,0.44118 -0.013,0.149 0,0.30583 0.08,0.43382 0.054,0.0902 0.1358,0.16042 0.2096,0.23561 0.074,0.0752 0.1438,0.16123 0.1654,0.26439 0.017,0.0818 0,0.16644 0,0.25 -0.01,0.20858 0.066,0.41257 0.1651,0.59642 0.099,0.18384 0.2238,0.35196 0.3349,0.52858 0.2179,0.34636 0.3815,0.7248 0.6025,1.06919 0.221,0.34438 0.514,0.66302 0.8975,0.80581 0.1996,0.0743 0.4138,0.0975 0.625,0.125 0.5815,0.0758 1.1671,0.18902 1.75,0.125 0.7133,-0.0783 1.385,-0.42592 1.901,-0.9245 0.516,-0.49858 0.8809,-1.14191 1.099,-1.8255 0.1045,-0.32746 0.1764,-0.66424 0.25,-1 0.1228,-0.56057 0.2511,-1.1231 0.2842,-1.69601 0.033,-0.57291 -0.034,-1.16275 -0.2842,-1.67899 -0.2343,-0.48255 -0.6154,-0.87611 -1,-1.25 -0.5935,-0.57688 -1.212,-1.12956 -1.875,-1.625 -0.1205,-0.09 -0.2428,-0.17839 -0.375,-0.25 -0.3098,-0.16777 -0.6677,-0.23826 -1.0197,-0.22581 -0.3521,0.0125 -0.6986,0.10565 -1.0207,0.24824 -0.6443,0.28516 -1.1838,0.75854 -1.7096,1.22757 -0.4183,0.37316 -0.835,0.74817 -1.25,1.125"
       id="path92" /><path
       style="fill:#f1963e;fill-opacity:1"
       d="m 1269.75,850.625 c -0.1264,1.10201 0.1948,2.24884 0.875,3.125 0.1637,0.21079 0.347,0.40637 0.5,0.625 0.4607,0.65823 0.6268,1.49463 1.125,2.125 0.2889,0.36551 0.6832,0.64664 1.1229,0.80055 0.4398,0.1539 0.9234,0.18004 1.3771,0.0744"
       id="path93" /><path
       style="fill:#f1963e;fill-opacity:1"
       d="m 1277.875,857.625 c 0.6185,0.0901 1.2682,-0.0529 1.7917,-0.39432 0.5236,-0.34145 0.9164,-0.87833 1.0833,-1.48068 0.1572,-0.56743 0.117,-1.17292 0,-1.75 -0.2312,-1.14078 -0.758,-2.21445 -1.48,-3.12745 -0.722,-0.91299 -1.636,-1.66726 -2.645,-2.24755 -0.6211,-0.35721 -1.29,-0.65329 -2,-0.75 -0.5789,-0.0788 -1.1662,-0.0231 -1.75,0 -0.4391,0.0174 -0.881,0.0165 -1.3138,0.0924 -0.4328,0.0759 -0.8628,0.23514 -1.1862,0.53262 -0.4078,0.37514 -0.6064,0.93799 -0.6342,1.49141 -0.028,0.55342 0.1,1.10298 0.2592,1.63359 0.3937,1.30829 1.0005,2.5692 1.9051,3.59309 0.9046,1.02389 2.1236,1.79909 3.4699,2.03191 0.5776,0.0999 1.1724,0.0999 1.75,0"
       id="path94" /><path
       style="fill:#f1963e;fill-opacity:1"
       d="m 1272.75,836.25 16,25.125"
       id="path95" /><path
       style="fill:#f1963e;fill-opacity:1"
       d="m 1251.579,869.56456 5.7894,15.9541 10.916,0.0442 -0.044,-1.90035 2.1655,3.66812 12.8163,0.13258 2.5633,-3.62392 v 2.07713 l 10.4298,0.0442 6.2314,-15.42377 -6.7175,-19.09188 -2.6075,-0.22097 v 5.3033 h -1.4142 v -5.34749 l -6.2756,-14.93763 0.044,-4.15426"
       id="path113" /><path
       style="fill:#f1963e;fill-opacity:1"
       d="m 1267.7541,831.82272 -0.044,-1.67938 2.2539,0.0442 v -4.38818 h -1.8537 l -0.087,-1.40692 1.8562,-0.0426 0.1768,-11.35385 -5.9662,-21.65514 13.6118,-2.43068 13.435,3.49134 -6.2756,20.59448 0.1308,11.41587 h 2.1663 l 6e-4,1.27759 -2.0337,0.0851 0.089,4.41294 h 1.9003 l 0.044,1.94455 h -1.6794 l -16.3076,-0.35356 -0.088,4.02167 -5.922,14.36311 -0.044,6.01041 h -2.2097 l -0.1326,-4.72878 h -2.5191 l -6.6291,17.98703 33.8527,-37.29988"
       id="path114" /><path
       style="fill:#f1963e;fill-opacity:1"
       d="m 1269.4776,831.24821 -0.3093,0.48614 c 2.6516,1.10485 5.4801,-4.59619 3.4029,1.14905 -2.0771,5.74524 5.1266,0.61872 5.1266,0.61872 l -2.4749,0.57452 -6.0546,-2.34229"
       id="path115" /><rect
       style="fill:#f1963e;fill-opacity:1"
       id="rect152"
       width="27.6875"
       height="1.75"
       x="1263.4375"
       y="849.875" /><rect
       style="fill:#f1963e;fill-opacity:1"
       id="rect153"
       width="1.75"
       height="1.5625"
       x="1252.8125"
       y="867.1875" /><path
       style="fill:#f1963e;fill-opacity:1"
       d="m 1251.6523,869.37891 c -0.016,0.0241 -0.014,0.0643 -0.031,0.0859 0,0.004 -0.01,0.008 -0.012,0.0117 0,0.001 6e-4,0.003 0,0.004 0,0.003 -0.01,10e-4 -0.01,0.004 0,0.002 0,0.005 0,0.008 -6e-4,10e-4 0,-9.2e-4 0,0 -0.01,0.008 0.012,-3.2e-4 0,0.008 0,5.8e-4 0,-10e-4 0,0 0,0.002 9e-4,0.005 0,0.008 0,0.004 -0.01,0.004 -0.01,0.008 0,0.0145 0,0.028 0.01,0.0391 0,0.004 10e-4,0.0166 0,0.0195 0.01,0.008 0.082,-0.038 0.09,-0.043 0,-0.003 0.012,-0.005 0.016,-0.008 0.03,-0.0199 0.059,-0.0438 0.09,-0.0625 0.01,-0.003 0.011,-0.004 0.016,-0.008 0,-0.003 0.01,-0.008 0.012,-0.0117 0.011,-0.008 0.023,-0.0156 0.035,-0.0234 0.051,-0.034 0.1055,-0.0653 0.1523,-0.10547 0.013,-0.0108 0.023,-0.0238 0.035,-0.0352 0.038,-0.0355 0.081,-0.0618 0.1211,-0.0937 0.046,-0.0367 0.093,-0.0734 0.1367,-0.11328 0.041,-0.0372 0.074,-0.0826 0.1133,-0.12109 0.058,-0.0561 0.086,-0.0682 0.1562,-0.1211 0.048,-0.0356 0.096,-0.0701 0.1406,-0.10937 0.043,-0.0379 0.081,-0.0848 0.1172,-0.12891 0.017,-0.0205 0.041,-0.0443 0.055,-0.0664 0.01,-0.0115 0.01,-0.0266 0.012,-0.0391 0.01,-0.0133 0.014,-0.0255 0.02,-0.0391 0.013,-0.0334 0.032,-0.0982 0.035,-0.13672 0,-0.0352 0,-0.0703 0.01,-0.10547 0,-0.0383 0.011,-0.10283 0,-0.13671 0,-0.006 -0.02,-0.0118 -0.023,-0.0156 -9e-4,-9.2e-4 9e-4,-0.003 0,-0.004 -0.01,-0.005 -0.028,-0.008 -0.035,-0.008 -0.018,0 -0.037,-0.002 -0.055,0.004 -0.053,0.0176 -0.1011,0.0616 -0.1445,0.0937 -0.016,0.0116 -0.084,0.0631 -0.098,0.0742 -0.032,0.0266 -0.062,0.055 -0.09,0.0859 0,0.006 -0.012,0.01 -0.016,0.0156 0,0.006 0,0.0133 -0.01,0.0195 -0.01,0.0165 -0.025,0.0433 -0.035,0.0586 0,0.003 -0.01,0.005 -0.01,0.008 0,0.006 0,0.0134 -0.01,0.0195 -0.01,0.0123 -0.015,0.0239 -0.023,0.0352 -0.033,0.0439 -0.07,0.0833 -0.1055,0.125 -0.01,0.0113 -0.018,0.024 -0.027,0.0352 -0.02,0.0232 -0.044,0.0381 -0.066,0.0586 -0.04,0.0368 -0.082,0.0721 -0.1211,0.10938 -0.047,0.0444 -0.085,0.0969 -0.1289,0.14453 -0.012,0.0136 -0.027,0.0253 -0.039,0.0391 -0.026,0.0287 -0.05,0.0598 -0.074,0.0899 -0.014,0.0175 -0.031,0.0352 -0.043,0.0547 -0.011,0.0192 -0.025,0.0453 -0.031,0.0664 0,0.004 0,0.008 0,0.0117 0,0.0143 -0.01,0.0291 -0.012,0.043 0,0.003 -0.01,0.004 -0.01,0.008 0,0.005 7e-4,0.0105 0,0.0156 0,0.0119 -0.01,0.0155 -0.012,0.0273 0,0.0121 -0.01,0.0277 -0.012,0.0391 -0.01,0.0179 0,-0.0166 -0.01,0.0117 0,0.004 0,0.008 0,0.0117 0,0.003 -0.01,0.004 -0.01,0.008 -8e-4,0.002 0,0.005 0,0.008 -5e-4,10e-4 0,-5.8e-4 0,0 -0.011,0.005 -0.018,10e-4 -0.023,0.004 -0.023,0.0114 0.01,0.0156 -0.035,0.0156 z"
       id="path157" /><path
       style="fill:#f1963e;fill-opacity:1"
       d="m 1251.7773,869.21484 c 0,0.007 -0.01,0.0135 -0.012,0.0195 -0.01,0.0135 -0.015,0.0156 -0.027,0.0234 -0.01,0.005 -0.01,0.0118 -0.012,0.0156 0,0.002 -0.01,0.002 -0.01,0.004 0,0.002 -0.019,0.032 -0.02,0.0352 -8e-4,0.002 0,0.006 0,0.008 -9e-4,9.2e-4 0,-9.2e-4 0,0 0,0.002 -0.01,0.0131 -0.01,0.0156 0,0.003 -0.01,0.017 -0.012,0.0195 0,5.8e-4 0,-9.2e-4 0,0 0,0.002 0,0.009 -0.01,0.0117 0,0.002 -0.01,0.002 -0.01,0.004 0,9.2e-4 9e-4,0.003 0,0.004 0,9.2e-4 0,-9.2e-4 0,0 0,0.002 0,0.009 -0.01,0.0117 -0.01,0.003 0,-0.005 -0.01,0.004 -6e-4,10e-4 9e-4,0.003 0,0.004 -9e-4,9.2e-4 0,-9.2e-4 0,0 0,0.002 0,0.005 0,0.008 -0.01,0.0163 3e-4,-0.004 -0.01,0.004 0,0.002 0,0.01 0,0.0117 -9e-4,9.2e-4 0,-9.2e-4 0,0 0,0.002 0,0.006 0,0.008 -9e-4,9.2e-4 0,-9.2e-4 0,0 0,0.002 0,0.006 0,0.008 -9e-4,9.2e-4 0,-9.2e-4 0,0 0,0.003 0,0.0137 0,0.0156 -9e-4,9.2e-4 0,-9.2e-4 0,0 0,0.002 0,0.006 0,0.008 -10e-4,9.2e-4 0,-10e-4 0,0 0,0.002 0,0.005 0,0.008 -6e-4,0.001 0,-9.2e-4 0,0 0,0.002 0,0.005 0,0.008 0,0.002 0,0.006 0,0.008 0,9.2e-4 0,-9.2e-4 0,0 0,0.003 0,0.013 0,0.0156 -9e-4,9.2e-4 0,-9.2e-4 0,0 0,0.003 0,0.013 0,0.0156 -9e-4,9.2e-4 0,-9.2e-4 0,0 0,0.002 0,0.006 0,0.008 -9e-4,9.2e-4 0,-9.2e-4 0,0 0,0.003 0,0.0501 0,0.0547 0.01,0.013 0.032,0.008 0.043,0.008 0.01,0 0.028,0.004 0.035,0 0.017,-0.008 0.029,-0.0209 0.039,-0.0352 0,-0.005 0.01,-0.007 0.012,-0.0117 0.01,-0.008 0.01,-0.0187 0.012,-0.0274 0.01,-0.0175 0.018,-0.0328 0.027,-0.0508 0.01,-0.0137 0.018,-0.0278 0.023,-0.043 0,-0.004 0,-0.008 0,-0.0117 0,-0.0142 0,-0.003 0.01,-0.0117 0.01,-0.01 0.018,-0.0394 0.019,-0.0508 0,-0.0112 0,-0.0242 0,-0.0351 4e-4,-0.002 0,-0.002 0,-0.004 0,-0.005 0,-0.014 0,-0.0195 0,-0.006 3e-4,-0.0598 -0.01,-0.0625 -0.01,-0.002 -0.013,-0.003 -0.02,-0.004 z"
       id="path158" /><path
       style="fill:#f1963e;fill-opacity:1"
       d="m 1251.5742,869.5625 c 0.01,-0.008 0.01,-0.016 0.016,-0.0234 0.01,-0.009 0.017,-0.0173 0.024,-0.0273 0,-0.004 0.01,-0.0215 0.012,-0.0234 9e-4,-9.2e-4 0,9.2e-4 0,0 0,-10e-4 0.01,-0.0127 0.01,-0.0156 0,-0.002 0,-0.006 0,-0.008 9e-4,-9.2e-4 0,9.2e-4 0,0 0,-0.005 0,-0.0212 0,-0.0273 8e-4,-0.002 0,-0.002 0,-0.004 0,-0.008 0,-0.0242 0,-0.0312 -4e-4,-10e-4 3e-4,-0.0156 0,-0.0156 -0.01,0 -0.01,0.0135 -0.01,0.0156 0,0.003 -0.01,-2.1e-4 -0.01,0.008 0,0.0104 0,-10e-4 0,0.004 0,0.002 0,0.006 0,0.008 -9e-4,9.3e-4 0,-9.2e-4 0,0 0,0.002 0,0.009 0,0.0117 -0.01,0.0179 0,-0.0166 -0.01,0.0117 0,0.004 0,0.0343 0,0.0352 -10e-4,9.2e-4 0,-9.2e-4 0,0 0,0.002 0,0.01 0,0.0117 0,0.002 0,0.002 -0.01,0.008 0,0.002 0,0.01 0,0.0117 0,9.2e-4 0,-9.2e-4 0,0 0,0.003 0,0.0163 0,0.0195 -9e-4,9.2e-4 0,-9.2e-4 0,0 0,0.003 0,0.013 0,0.0156 -9e-4,9.3e-4 0,0 0,0 0,0.005 -0.01,0.0104 -0.01,0.0156 z"
       id="path159" /><path
       style="fill:#f1963e;fill-opacity:1"
       d="m 1253.2422,867.41406 c 0.1481,-0.22758 0.2246,-0.49236 0.3594,-0.72656 0.044,-0.0758 0.1001,-0.14381 0.1562,-0.21094 0.2622,-0.31359 0.2719,-0.28706 0.6172,-0.57812 0.113,-0.0952 0.2257,-0.19077 0.3359,-0.28907 0.066,-0.0589 0.1283,-0.12198 0.1953,-0.17968 0.045,-0.0387 0.095,-0.0717 0.1407,-0.10938 0.027,-0.0222 0.052,-0.0469 0.078,-0.0703 0.034,-0.026 0.068,-0.0514 0.1016,-0.0781 0.1465,-0.11722 0.3034,-0.28201 0.4921,-0.33593 0.026,-0.007 0.087,-0.0386 0.1172,-0.0234 0.043,0.0214 0.047,0.0923 0.047,0.13281 0,0.1845 -0.045,0.36818 -0.086,0.54688 -0.033,0.14574 -0.053,0.1399 -0.1407,0.32812 -0.1633,0.34904 0.097,-0.17009 -0.164,0.32031 -0.1076,0.20234 -0.1836,0.42214 -0.3047,0.61719 -0.028,0.0458 -0.091,0.12147 -0.125,0.16406 -0.086,0.10765 -0.1757,0.21593 -0.2891,0.29688 -0.1076,0.0769 -0.018,0.004 -0.1172,0.0703 -0.022,0.0145 -0.039,0.0346 -0.062,0.0469 -0.017,0.009 -0.037,0.009 -0.055,0.0156 -0.053,0.0214 -0.1002,0.0472 -0.1563,0.0625 -0.013,0.004 -0.026,0.005 -0.039,0.008 -0.016,0.003 -0.031,0.004 -0.047,0.008 -0.014,0.004 -0.026,0.0112 -0.039,0.0156 -0.023,0.008 -0.048,0.008 -0.07,0.0156 -0.011,0.004 -0.02,0.0119 -0.031,0.0156 -0.048,0.0159 -0.1003,0.0138 -0.1484,0.0234 -0.01,0.001 -0.01,0.005 -0.016,0.008 -0.016,0.003 -0.031,0.006 -0.047,0.008 -0.031,0.003 -0.063,-0.004 -0.094,0 -0.1175,0.0147 -0.2402,0.008 -0.3594,0.008 -0.047,0 -0.1027,0.009 -0.1485,0 -0.01,-10e-4 -0.01,-0.007 -0.016,-0.008 -0.021,-0.003 -0.042,0.003 -0.062,0 -0.033,-0.005 -0.014,-0.007 -0.039,-0.0156 0,-0.002 -0.012,0.004 -0.016,0 0,-0.002 0,-0.006 0,-0.008 0,-0.002 -0.01,0.002 -0.01,0 -0.014,-0.0135 0.01,-0.0848 0.01,-0.10157"
       id="path160" /><path
       style="fill:#f1963e;fill-opacity:1"
       d="m 1269.1904,831.3366 c 0,0.0442 0,0.0884 0,0.13259 0,0.0167 -6e-4,0.61813 0,0.61871 0.01,0.0104 0.031,-0.007 0.044,0 0.063,0.0316 0.1481,0.0481 0.2209,0.0663 0.07,0.0174 0.1505,-0.0141 0.221,0 0.023,0.005 0.044,0.0165 0.066,0.0221 0.076,0.0191 0.1658,-0.0155 0.2431,0 0.016,0.003 0.028,0.0189 0.044,0.0221 0.1412,0.0282 0.4594,0 0.6187,0 0.096,0 0.1921,-0.0106 0.2872,0 0.1466,0.0163 0.2945,0.0294 0.442,0.0442 0.045,0.005 0.2052,-0.005 0.2431,0 0.06,0.009 0.1165,0.0362 0.1767,0.0442 0.051,0.007 0.1033,-0.003 0.1547,0 0.4122,0.0258 0.8236,0.0221 1.2375,0.0221 0.323,0 0.6494,0.0135 0.9722,0 0.2732,-0.0114 0.5448,-0.0481 0.8176,-0.0663 0.378,-0.0252 0.7493,-0.0103 1.127,-0.0221 0.1106,-0.003 0.2208,-0.018 0.3314,-0.0221 0.5647,-0.0209 1.1368,0 1.7015,0 0.1399,0 0.2802,-0.01 0.4198,0 0.3168,0.0218 0.6327,0.0746 0.9502,0.0884 0.1546,0.007 0.3096,-0.007 0.4641,0 0.081,0.004 0.1618,0.0178 0.243,0.0221 0.3967,0.0209 0.7963,0.002 1.1933,0.0221 0.1954,0.01 0.3802,0.0754 0.5745,0.0884 0.3463,0.0231 0.048,-0.0262 0.2652,0.0221 0.1638,0.0364 0.321,0.007 0.4861,0.0221 0.03,0.003 0.058,0.0178 0.088,0.0221 0.1757,0.0251 0.3755,0 0.5524,0 0.2799,0 0.5598,0 0.8397,0 0.1184,0 0.2574,-0.0197 0.3756,0 0.01,0.002 0.012,0.0188 0.022,0.0221 0.08,0.0266 0.2949,0 0.3978,0 0.04,0 0.3697,0.006 0.3756,0 0.013,-0.013 0.034,-0.40508 0.022,-0.44194 0,-0.007 -0.039,-0.0833 -0.044,-0.0884 -0.052,-0.0524 -0.1356,-0.0904 -0.1988,-0.13258 -0.091,-0.0609 -0.1744,-0.13837 -0.2652,-0.19888 -0.038,-0.0251 -0.073,-0.0191 -0.1105,-0.0442 -0.01,-0.004 0.01,-0.0169 0,-0.0221 -0.01,-0.005 -0.017,0.005 -0.022,0 -0.012,-0.0116 -0.01,-0.0351 -0.022,-0.0442 -0.012,-0.008 -0.03,0.005 -0.044,0 -0.04,-0.0159 -0.08,-0.0359 -0.1105,-0.0663 -0.01,-0.005 0.01,-0.0188 0,-0.0221 -0.013,-0.007 -0.03,0.005 -0.044,0 -0.03,-0.01 -0.041,-0.0475 -0.066,-0.0663 -0.1357,-0.10174 0.042,0.0432 -0.088,-0.0221 -0.019,-0.009 -0.025,-0.0365 -0.044,-0.0442 -0.02,-0.008 -0.044,0.004 -0.066,0 -0.075,-0.0125 -0.1486,-0.0518 -0.221,-0.0663 -0.1447,-0.029 -0.2963,-0.0481 -0.4419,-0.0663 -0.075,-0.009 -0.1465,-0.0343 -0.221,-0.0442 -0.2643,-0.0353 -0.5316,-0.0532 -0.7955,-0.0884 -0.2005,-0.0267 -0.3961,-0.0843 -0.5966,-0.11048 -0.2572,-0.0336 -0.5153,-0.0343 -0.7734,-0.0442 -0.4061,-0.0156 -0.8084,-0.0221 -1.2153,-0.0221 -0.4494,0 -0.8987,0 -1.348,0 -0.2123,0 -0.4289,-0.0118 -0.6408,0 -0.059,0.003 -0.1175,0.0186 -0.1768,0.0221 -0.2128,0.0125 -0.4279,-0.0125 -0.6408,0 -0.6861,0.0404 -1.3705,0.13664 -2.055,0.19887 -0.1256,0.0114 -0.2498,0.0363 -0.3757,0.0442 -0.2347,0.0147 -0.4727,0.004 -0.7071,0.0221 -0.052,0.004 -0.1027,0.019 -0.1546,0.0221 -0.3151,0.0185 -0.6358,-0.0262 -0.9502,0 -0.1583,0.0132 -0.3302,0.0371 -0.4862,0.0663 -0.1194,0.0224 -0.233,0.0733 -0.3535,0.0884 -0.1369,0.0171 -0.2826,0.004 -0.4199,0.0221 -0.1489,0.0199 -0.2924,0.0734 -0.4419,0.0884 -0.073,0.007 -0.1475,-0.005 -0.221,0 -0.4155,0.0277 0.1002,0.01 -0.1767,0.0442 -0.2847,0.0356 -0.6756,-0.0114 -0.9502,-0.0663 -0.1064,-0.0213 -0.2243,0.0179 -0.3315,0 -0.089,-0.0149 -0.1729,-0.031 -0.2651,-0.0442 -0.015,-0.002 -0.034,0.0104 -0.044,0 -0.01,-0.005 0,-0.0147 0,-0.0221 -0.03,-0.007 -0.059,-0.0147 -0.088,-0.0221 z"
       id="path161" /><path
       style="display:inline;fill:#f1963e;fill-opacity:1;stroke-width:7.80472"
       d="m 1255.25,864.375 0.7812,1.25 28.6875,-32.25 -1.9375,-0.1875 0.7188,0.53125 -27.4375,30.375 z"
       id="path343" /></g></svg>
